<?xml version="1.0" encoding="UTF-8" standalone="no"?>
<svg
   xmlns:dc="http://purl.org/dc/elements/1.1/"
   xmlns:cc="http://creativecommons.org/ns#"
   xmlns:rdf="http://www.w3.org/1999/02/22-rdf-syntax-ns#"
   xmlns:svg="http://www.w3.org/2000/svg"
   xmlns="http://www.w3.org/2000/svg"
   xmlns:sodipodi="http://sodipodi.sourceforge.net/DTD/sodipodi-0.dtd"
   xmlns:inkscape="http://www.inkscape.org/namespaces/inkscape"
   width="841.89pt"
   height="595.28pt"
   viewBox="0 0 841.89 595.28"
   version="1.2"
   id="svg88"
   sodipodi:docname="ebs.svg"
   inkscape:version="0.92.1 r15371">
  <metadata
     id="metadata92">
    <rdf:RDF>
      <cc:Work
         rdf:about="">
        <dc:format>image/svg+xml</dc:format>
        <dc:type
           rdf:resource="http://purl.org/dc/dcmitype/StillImage" />
        <dc:title></dc:title>
      </cc:Work>
    </rdf:RDF>
  </metadata>
  <sodipodi:namedview
     pagecolor="#ffffff"
     bordercolor="#666666"
     borderopacity="1"
     objecttolerance="10"
     gridtolerance="10"
     guidetolerance="10"
     inkscape:pageopacity="0"
     inkscape:pageshadow="2"
     inkscape:window-width="1281"
     inkscape:window-height="681"
     id="namedview90"
     showgrid="false"
     inkscape:zoom="0.76599244"
     inkscape:cx="376.08756"
     inkscape:cy="322.45727"
     inkscape:window-x="0"
     inkscape:window-y="0"
     inkscape:window-maximized="0"
     inkscape:current-layer="surface40" />
  <defs
     id="defs5">
    <clipPath
       id="clip1">
      <path
         d="M 120 6 L 711 6 L 711 595.28125 L 120 595.28125 Z M 120 6 "
         id="path2" />
    </clipPath>
  </defs>
  <g
     id="surface40">
    <path
       style=" stroke:none;fill-rule:nonzero;fill:rgb(11.372375%,11.372375%,10.588074%);fill-opacity:1;"
       d="M 438.269531 328.394531 C 425.125 348.8125 413.476563 344.125 409.015625 342.914063 C 404.570313 341.707031 401.300781 335.511719 403.425781 324.273438 C 405.546875 313.035156 419.660156 250.714844 419.660156 250.714844 C 419.660156 250.714844 427.277344 244.597656 438.394531 245.597656 C 449.507813 246.59375 450.882813 261.207031 450.882813 261.207031 C 450.882813 261.207031 446.140625 265.441406 447.011719 275.195313 C 447.632813 282.1875 450.882813 284.308594 450.882813 284.308594 C 450.882813 284.308594 451.976563 307.101563 438.269531 328.394531 M 309.136719 254.960938 C 322 231.265625 332.988281 240.101563 332.988281 240.101563 C 332.988281 240.101563 340.546875 246.28125 332.585938 269.855469 C 323.863281 295.671875 293.773438 297.921875 293.773438 297.921875 C 293.773438 297.921875 296.550781 278.148438 309.136719 254.960938 M 571.644531 283.3125 C 569.648438 265.828125 568.148438 226.363281 568.148438 217.371094 L 525.6875 223.367188 C 525.6875 223.367188 505.707031 263.082031 481.230469 268.824219 C 481.230469 268.824219 481.230469 234.355469 459.75 227.613281 C 438.269531 220.871094 422.78125 234.355469 422.78125 234.355469 L 437.019531 168.667969 L 394.558594 174.660156 L 363.835938 318.527344 C 363.835938 318.527344 336.710938 350.128906 313.882813 348.003906 C 293.773438 346.128906 291.542969 336.589844 290.152344 329.519531 C 288.546875 321.339844 291.152344 311.535156 291.152344 311.535156 C 291.152344 311.535156 330.898438 314.84375 352.628906 272.382813 C 352.628906 272.382813 367.582031 237.601563 344.105469 226.863281 C 320.625 216.125 287.15625 229.359375 269.171875 256.085938 C 269.171875 256.085938 259.796875 271.289063 256.683594 281.3125 L 255.683594 284.0625 C 255.683594 284.0625 237.703125 337.261719 259.433594 359.992188 C 281.160156 382.71875 323.375 365.984375 323.375 365.984375 C 323.375 365.984375 341.355469 360.242188 361.839844 334.515625 C 361.839844 334.515625 360.589844 354.746094 375.324219 364.984375 C 390.0625 375.226563 429.277344 375.726563 451.257813 352.75 C 473.234375 329.769531 476.734375 311.285156 480.480469 282.8125 C 480.480469 282.8125 503.707031 278.566406 526.4375 244.097656 C 526.4375 244.097656 527.4375 260.332031 530.683594 295.800781 C 533.929688 331.265625 532.492188 333.046875 531.246094 337.292969 C 529.996094 341.539063 527.53125 350.003906 514.699219 349.75 C 502 349.5 498.464844 337.761719 497.964844 334.015625 C 497.464844 330.269531 497.714844 328.019531 497.714844 328.019531 C 497.714844 328.019531 501.210938 331.765625 505.957031 331.515625 C 510.703125 331.265625 517.945313 329.269531 518.695313 319.027344 C 519.445313 308.789063 508.203125 306.234375 504.957031 306.289063 C 499.679688 306.382813 489.433594 309.347656 485.476563 322.773438 C 481.515625 336.203125 482.578125 359.613281 509 369.5 C 534.832031 379.167969 572.832031 369.332031 574.464844 325.023438 C 574.464844 325.023438 573.644531 300.796875 571.644531 283.3125 "
       id="path7"
       inkscape:export-xdpi="72"
       inkscape:export-ydpi="72" />
    <path
       style=" stroke:none;fill-rule:nonzero;fill:rgb(11.372375%,11.372375%,10.588074%);fill-opacity:1;"
       d="M 285.625 397.886719 L 285.625 389.382813 L 292.136719 389.382813 L 292.136719 391.363281 L 287.957031 391.363281 L 287.957031 392.492188 L 290.472656 392.492188 L 290.472656 394.449219 L 287.957031 394.449219 L 287.957031 395.90625 L 292.222656 395.90625 L 292.222656 397.886719 Z M 285.625 397.886719 "
       id="path9"
       inkscape:export-xdpi="72"
       inkscape:export-ydpi="72" />
    <path
       style=" stroke:none;fill-rule:nonzero;fill:rgb(11.372375%,11.372375%,10.588074%);fill-opacity:1;"
       d="M 299.410156 398.019531 C 298.035156 398.019531 296.710938 397.570313 295.824219 396.988281 L 296.96875 395.140625 C 297.585938 395.566406 298.667969 395.992188 299.457031 395.992188 C 300.296875 395.992188 300.5625 395.847656 300.5625 395.445313 C 300.5625 395.128906 300.257813 394.933594 299.117188 394.667969 C 297.0625 394.195313 296.082031 393.636719 296.082031 391.933594 C 296.082031 390.332031 297.378906 389.25 299.433594 389.25 C 300.878906 389.25 301.921875 389.601563 302.824219 390.234375 L 301.679688 392.082031 C 300.929688 391.570313 300.171875 391.277344 299.3125 391.277344 C 298.605469 391.277344 298.4375 391.496094 298.4375 391.800781 C 298.4375 392.117188 298.742188 392.261719 299.832031 392.519531 C 301.972656 393.027344 302.917969 393.683594 302.917969 395.273438 C 302.917969 397.21875 301.449219 398.019531 299.410156 398.019531 "
       id="path11"
       inkscape:export-xdpi="72"
       inkscape:export-ydpi="72" />
    <path
       style=" stroke:none;fill-rule:nonzero;fill:rgb(11.372375%,11.372375%,10.588074%);fill-opacity:1;"
       d="M 310.347656 398.019531 C 307.820313 398.019531 306.472656 396.148438 306.472656 393.636719 C 306.472656 390.902344 308.078125 389.25 310.359375 389.25 C 312.449219 389.25 313.277344 390.148438 313.859375 391.75 L 311.722656 392.589844 C 311.417969 391.800781 311.125 391.304688 310.347656 391.304688 C 309.363281 391.304688 308.9375 392.285156 308.9375 393.636719 C 308.9375 394.933594 309.351563 395.96875 310.375 395.96875 C 311.113281 395.96875 311.429688 395.566406 311.890625 394.765625 L 313.882813 395.820313 C 313.3125 396.9375 312.367188 398.019531 310.347656 398.019531 "
       id="path13"
       inkscape:export-xdpi="72"
       inkscape:export-ydpi="72" />
    <path
       style=" stroke:none;fill-rule:nonzero;fill:rgb(11.372375%,11.372375%,10.588074%);fill-opacity:1;"
       d="M 321.15625 391.304688 C 320.207031 391.304688 319.671875 392.09375 319.671875 393.625 C 319.671875 395.152344 320.230469 395.96875 321.179688 395.96875 C 322.125 395.96875 322.660156 395.179688 322.660156 393.648438 C 322.660156 392.117188 322.101563 391.304688 321.15625 391.304688 M 321.15625 398.019531 C 318.847656 398.019531 317.230469 396.476563 317.230469 393.648438 C 317.230469 390.816406 318.871094 389.25 321.179688 389.25 C 323.484375 389.25 325.101563 390.792969 325.101563 393.625 C 325.101563 396.453125 323.460938 398.019531 321.15625 398.019531 "
       id="path15"
       inkscape:export-xdpi="72"
       inkscape:export-ydpi="72" />
    <path
       style=" stroke:none;fill-rule:nonzero;fill:rgb(11.372375%,11.372375%,10.588074%);fill-opacity:1;"
       d="M 328.898438 397.886719 L 328.898438 389.382813 L 331.28125 389.382813 L 331.28125 395.835938 L 335.046875 395.835938 L 335.046875 397.886719 Z M 328.898438 397.886719 "
       id="path17"
       inkscape:export-xdpi="72"
       inkscape:export-ydpi="72" />
    <path
       style=" stroke:none;fill-rule:nonzero;fill:rgb(11.372375%,11.372375%,10.588074%);fill-opacity:1;"
       d="M 343.09375 393.964844 C 342.789063 392.871094 342.65625 392.410156 342.546875 391.835938 C 342.4375 392.410156 342.304688 392.882813 342 393.964844 L 341.84375 394.523438 L 343.253906 394.523438 Z M 344.285156 397.886719 L 343.824219 396.394531 L 341.273438 396.394531 L 340.808594 397.886719 L 338.285156 397.886719 L 341.367188 389.382813 L 343.75 389.382813 L 346.835938 397.886719 Z M 344.285156 397.886719 "
       id="path19"
       inkscape:export-xdpi="72"
       inkscape:export-ydpi="72" />
    <path
       style=" stroke:none;fill-rule:nonzero;fill:rgb(11.372375%,11.372375%,10.588074%);fill-opacity:1;"
       d="M 361.039063 394.375 L 359.167969 394.375 L 359.167969 396.027344 L 361.027344 396.027344 C 361.609375 396.027344 361.878906 395.675781 361.878906 395.191406 C 361.878906 394.691406 361.597656 394.375 361.039063 394.375 M 360.941406 391.242188 L 359.167969 391.242188 L 359.167969 392.578125 L 360.941406 392.578125 C 361.488281 392.578125 361.683594 392.3125 361.683594 391.910156 C 361.683594 391.535156 361.5 391.242188 360.941406 391.242188 M 360.988281 397.886719 L 356.910156 397.886719 L 356.910156 389.382813 L 361.015625 389.382813 C 363.128906 389.382813 363.992188 390.171875 363.992188 391.59375 C 363.992188 392.519531 363.539063 392.929688 362.96875 393.257813 C 363.734375 393.585938 364.183594 394.179688 364.183594 395.140625 C 364.183594 396.878906 363.128906 397.886719 360.988281 397.886719 "
       id="path21"
       inkscape:export-xdpi="72"
       inkscape:export-ydpi="72" />
    <path
       style=" stroke:none;fill-rule:nonzero;fill:rgb(11.372375%,11.372375%,10.588074%);fill-opacity:1;"
       d="M 371.785156 391.304688 L 370.363281 391.304688 L 370.363281 393.160156 L 371.746094 393.160156 C 372.511719 393.160156 372.816406 392.820313 372.816406 392.214844 C 372.816406 391.679688 372.523438 391.304688 371.785156 391.304688 M 372.695313 397.886719 L 371.308594 395.019531 L 370.363281 395.019531 L 370.363281 397.886719 L 368.042969 397.886719 L 368.042969 389.382813 L 371.84375 389.382813 C 373.835938 389.382813 375.160156 390.136719 375.160156 392.152344 C 375.160156 393.429688 374.566406 394.21875 373.628906 394.644531 L 375.332031 397.886719 Z M 372.695313 397.886719 "
       id="path23"
       inkscape:export-xdpi="72"
       inkscape:export-ydpi="72" />
    <path
       style=" stroke:none;fill-rule:nonzero;fill:rgb(11.372375%,11.372375%,10.588074%);fill-opacity:1;"
       d="M 383.464844 393.964844 C 383.160156 392.871094 383.027344 392.410156 382.917969 391.835938 C 382.808594 392.410156 382.675781 392.882813 382.371094 393.964844 L 382.214844 394.523438 L 383.621094 394.523438 Z M 384.65625 397.886719 L 384.191406 396.394531 L 381.640625 396.394531 L 381.179688 397.886719 L 378.652344 397.886719 L 381.738281 389.382813 L 384.121094 389.382813 L 387.207031 397.886719 Z M 384.65625 397.886719 "
       id="path25"
       inkscape:export-xdpi="72"
       inkscape:export-ydpi="72" />
    <path
       style=" stroke:none;fill-rule:nonzero;fill:rgb(11.372375%,11.372375%,10.588074%);fill-opacity:1;"
       d="M 394.097656 398.019531 C 392.726563 398.019531 391.402344 397.570313 390.515625 396.988281 L 391.65625 395.140625 C 392.277344 395.566406 393.359375 395.992188 394.148438 395.992188 C 394.984375 395.992188 395.253906 395.847656 395.253906 395.445313 C 395.253906 395.128906 394.949219 394.933594 393.808594 394.667969 C 391.753906 394.195313 390.769531 393.636719 390.769531 391.933594 C 390.769531 390.332031 392.070313 389.25 394.125 389.25 C 395.570313 389.25 396.613281 389.601563 397.511719 390.234375 L 396.371094 392.082031 C 395.617188 391.570313 394.863281 391.277344 394.003906 391.277344 C 393.296875 391.277344 393.128906 391.496094 393.128906 391.800781 C 393.128906 392.117188 393.429688 392.261719 394.523438 392.519531 C 396.664063 393.027344 397.609375 393.683594 397.609375 395.273438 C 397.609375 397.21875 396.140625 398.019531 394.097656 398.019531 "
       id="path27"
       inkscape:export-xdpi="72"
       inkscape:export-ydpi="72" />
    <path
       style=" stroke:none;fill-rule:nonzero;fill:rgb(11.372375%,11.372375%,10.588074%);fill-opacity:1;"
       d="M 401.574219 389.382813 L 403.980469 389.382813 L 403.980469 397.886719 L 401.574219 397.886719 Z M 401.574219 389.382813 "
       id="path29"
       inkscape:export-xdpi="72"
       inkscape:export-ydpi="72" />
    <path
       style=" stroke:none;fill-rule:nonzero;fill:rgb(11.372375%,11.372375%,10.588074%);fill-opacity:1;"
       d="M 408.195313 397.886719 L 408.195313 389.382813 L 410.574219 389.382813 L 410.574219 395.835938 L 414.339844 395.835938 L 414.339844 397.886719 Z M 408.195313 397.886719 "
       id="path31"
       inkscape:export-xdpi="72"
       inkscape:export-ydpi="72" />
    <path
       style=" stroke:none;fill-rule:nonzero;fill:rgb(11.372375%,11.372375%,10.588074%);fill-opacity:1;"
       d="M 418.089844 397.886719 L 418.089844 389.382813 L 424.601563 389.382813 L 424.601563 391.363281 L 420.421875 391.363281 L 420.421875 392.492188 L 422.9375 392.492188 L 422.9375 394.449219 L 420.421875 394.449219 L 420.421875 395.90625 L 424.683594 395.90625 L 424.683594 397.886719 Z M 418.089844 397.886719 "
       id="path33"
       inkscape:export-xdpi="72"
       inkscape:export-ydpi="72" />
    <path
       style=" stroke:none;fill-rule:nonzero;fill:rgb(11.372375%,11.372375%,10.588074%);fill-opacity:1;"
       d="M 428.675781 389.382813 L 431.082031 389.382813 L 431.082031 397.886719 L 428.675781 397.886719 Z M 428.675781 389.382813 "
       id="path35"
       inkscape:export-xdpi="72"
       inkscape:export-ydpi="72" />
    <path
       style=" stroke:none;fill-rule:nonzero;fill:rgb(11.372375%,11.372375%,10.588074%);fill-opacity:1;"
       d="M 439.035156 391.304688 L 437.613281 391.304688 L 437.613281 393.160156 L 439 393.160156 C 439.761719 393.160156 440.066406 392.820313 440.066406 392.214844 C 440.066406 391.679688 439.777344 391.304688 439.035156 391.304688 M 439.945313 397.886719 L 438.5625 395.019531 L 437.613281 395.019531 L 437.613281 397.886719 L 435.292969 397.886719 L 435.292969 389.382813 L 439.09375 389.382813 C 441.085938 389.382813 442.410156 390.136719 442.410156 392.152344 C 442.410156 393.429688 441.816406 394.21875 440.878906 394.644531 L 442.582031 397.886719 Z M 439.945313 397.886719 "
       id="path37"
       inkscape:export-xdpi="72"
       inkscape:export-ydpi="72" />
    <path
       style=" stroke:none;fill-rule:nonzero;fill:rgb(11.372375%,11.372375%,10.588074%);fill-opacity:1;"
       d="M 450.714844 393.964844 C 450.410156 392.871094 450.277344 392.410156 450.167969 391.835938 C 450.058594 392.410156 449.925781 392.882813 449.621094 393.964844 L 449.460938 394.523438 L 450.871094 394.523438 Z M 451.90625 397.886719 L 451.441406 396.394531 L 448.890625 396.394531 L 448.429688 397.886719 L 445.902344 397.886719 L 448.992188 389.382813 L 451.371094 389.382813 L 454.457031 397.886719 Z M 451.90625 397.886719 "
       id="path39"
       inkscape:export-xdpi="72"
       inkscape:export-ydpi="72" />
    <path
       style=" stroke:none;fill-rule:nonzero;fill:rgb(11.372375%,11.372375%,10.588074%);fill-opacity:1;"
       d="M 467.492188 391.398438 L 466.910156 391.398438 L 466.910156 395.871094 L 467.417969 395.871094 C 468.890625 395.871094 469.460938 395.3125 469.460938 393.621094 C 469.460938 392.054688 468.960938 391.398438 467.492188 391.398438 M 467.285156 397.886719 L 464.53125 397.886719 L 464.53125 389.382813 L 467.503906 389.382813 C 470.175781 389.382813 471.878906 390.390625 471.878906 393.585938 C 471.878906 396.78125 470.296875 397.886719 467.285156 397.886719 "
       id="path41"
       inkscape:export-xdpi="72"
       inkscape:export-ydpi="72" />
    <path
       style=" stroke:none;fill-rule:nonzero;fill:rgb(11.372375%,11.372375%,10.588074%);fill-opacity:1;"
       d="M 475.722656 397.886719 L 475.722656 389.382813 L 482.234375 389.382813 L 482.234375 391.363281 L 478.054688 391.363281 L 478.054688 392.492188 L 480.570313 392.492188 L 480.570313 394.449219 L 478.054688 394.449219 L 478.054688 395.90625 L 482.320313 395.90625 L 482.320313 397.886719 Z M 475.722656 397.886719 "
       id="path43"
       inkscape:export-xdpi="72"
       inkscape:export-ydpi="72" />
    <path
       style=" stroke:none;fill-rule:nonzero;fill:rgb(11.372375%,11.372375%,10.588074%);fill-opacity:1;"
       d="M 495.941406 398.019531 C 494.566406 398.019531 493.242188 397.570313 492.355469 396.988281 L 493.496094 395.140625 C 494.117188 395.566406 495.199219 395.992188 495.988281 395.992188 C 496.828125 395.992188 497.09375 395.847656 497.09375 395.445313 C 497.09375 395.128906 496.789063 394.933594 495.648438 394.667969 C 493.597656 394.195313 492.613281 393.636719 492.613281 391.933594 C 492.613281 390.332031 493.910156 389.25 495.964844 389.25 C 497.410156 389.25 498.453125 389.601563 499.351563 390.234375 L 498.210938 392.082031 C 497.457031 391.570313 496.707031 391.277344 495.84375 391.277344 C 495.140625 391.277344 494.96875 391.496094 494.96875 391.800781 C 494.96875 392.117188 495.273438 392.261719 496.363281 392.519531 C 498.503906 393.027344 499.449219 393.683594 499.449219 395.273438 C 499.449219 397.21875 497.980469 398.019531 495.941406 398.019531 "
       id="path45"
       inkscape:export-xdpi="72"
       inkscape:export-ydpi="72" />
    <path
       style=" stroke:none;fill-rule:nonzero;fill:rgb(11.372375%,11.372375%,10.588074%);fill-opacity:1;"
       d="M 508.410156 397.886719 L 506.636719 394.265625 L 505.761719 395.324219 L 505.761719 397.886719 L 503.355469 397.886719 L 503.355469 389.382813 L 505.761719 389.382813 L 505.761719 390.378906 C 505.761719 391.097656 505.75 391.859375 505.726563 392.480469 C 506.078125 391.921875 506.820313 390.9375 507.367188 390.246094 L 508.046875 389.382813 L 510.914063 389.382813 L 508.351563 392.382813 L 511.203125 397.886719 Z M 508.410156 397.886719 "
       id="path47"
       inkscape:export-xdpi="72"
       inkscape:export-ydpi="72" />
    <path
       style=" stroke:none;fill-rule:nonzero;fill:rgb(11.372375%,11.372375%,10.588074%);fill-opacity:1;"
       d="M 518.996094 393.964844 C 518.691406 392.871094 518.558594 392.410156 518.453125 391.835938 C 518.339844 392.410156 518.207031 392.882813 517.90625 393.964844 L 517.746094 394.523438 L 519.15625 394.523438 Z M 520.1875 397.886719 L 519.726563 396.394531 L 517.175781 396.394531 L 516.714844 397.886719 L 514.1875 397.886719 L 517.273438 389.382813 L 519.652344 389.382813 L 522.738281 397.886719 Z M 520.1875 397.886719 "
       id="path49"
       inkscape:export-xdpi="72"
       inkscape:export-ydpi="72" />
    <path
       style=" stroke:none;fill-rule:nonzero;fill:rgb(11.372375%,11.372375%,10.588074%);fill-opacity:1;"
       d="M 530.761719 391.4375 L 530.761719 397.886719 L 528.40625 397.886719 L 528.40625 391.4375 L 526.023438 391.4375 L 526.023438 389.382813 L 533.144531 389.382813 L 533.144531 391.4375 Z M 530.761719 391.4375 "
       id="path51"
       inkscape:export-xdpi="72"
       inkscape:export-ydpi="72" />
    <path
       style=" stroke:none;fill-rule:nonzero;fill:rgb(11.372375%,11.372375%,10.588074%);fill-opacity:1;"
       d="M 536.9375 397.886719 L 536.9375 389.382813 L 543.453125 389.382813 L 543.453125 391.363281 L 539.269531 391.363281 L 539.269531 392.492188 L 541.789063 392.492188 L 541.789063 394.449219 L 539.269531 394.449219 L 539.269531 395.90625 L 543.535156 395.90625 L 543.535156 397.886719 Z M 536.9375 397.886719 "
       id="path53"
       inkscape:export-xdpi="72"
       inkscape:export-ydpi="72" />
    <g
       clip-path="url(#clip1)"
       clip-rule="nonzero"
       id="g57"
       inkscape:export-xdpi="72"
       inkscape:export-ydpi="72">
      <path
         style="fill:none;stroke-width:7;stroke-linecap:butt;stroke-linejoin:miter;stroke:rgb(11.372375%,11.372375%,10.588074%);stroke-opacity:1;stroke-miterlimit:10;"
         d="M 0 -0.000625 C 0 108.343125 -87.832031 196.175156 -196.175781 196.175156 C -304.523438 196.175156 -392.355469 108.343125 -392.355469 -0.000625 C -392.355469 -108.344375 -304.523438 -196.176406 -196.175781 -196.176406 C -87.832031 -196.176406 0 -108.344375 0 -0.000625 Z M 0 -0.000625 "
         transform="matrix(1,0,0,-1,611.5,301.64)"
         id="path55" />
    </g>
    <path
       style=" stroke:none;fill-rule:nonzero;fill:rgb(11.372375%,11.372375%,10.588074%);fill-opacity:1;"
       d="M 358.199219 436.621094 C 358.199219 436.621094 358.984375 433.613281 357.414063 429.171875 C 355.847656 424.726563 358.984375 424.074219 360.8125 424.464844 C 362.644531 424.855469 379.113281 428.585938 405.121094 424.367188 C 431.128906 420.152344 435.441406 418.84375 449.035156 418.714844 C 462.625 418.585938 472.296875 420.414063 475.4375 423.15625 C 478.570313 425.902344 477.789063 428.386719 476.613281 429.691406 C 475.4375 431 473.472656 435.574219 473.996094 438.449219 C 474.519531 441.324219 476.089844 443.808594 475.4375 445.507813 C 474.78125 447.207031 474.257813 447.730469 469.816406 447.074219 C 465.371094 446.421875 448.773438 444.070313 437.925781 446.03125 C 427.078125 447.992188 396.101563 452.957031 384.207031 452.957031 C 372.316406 452.957031 362.121094 452.433594 356.371094 447.730469 C 356.371094 447.730469 353.621094 444.804688 356.371094 441.324219 C 357.925781 439.355469 358.199219 436.621094 358.199219 436.621094 "
       id="path59"
       inkscape:export-xdpi="72"
       inkscape:export-ydpi="72" />
    <path
       style=" stroke:none;fill-rule:nonzero;fill:rgb(11.372375%,11.372375%,10.588074%);fill-opacity:1;"
       d="M 351.46875 413.761719 C 351.46875 413.761719 350.429688 413.503906 348.886719 413.617188 C 346.699219 413.78125 346.65625 415.582031 347.1875 416.492188 C 348.332031 418.453125 348.820313 419.988281 349.148438 422.375 C 349.484375 424.832031 347.710938 427.996094 344.445313 430.738281 C 341.175781 433.484375 345.75 435.050781 345.75 435.050781 C 345.75 435.050781 348.289063 436.453125 352.894531 436.839844 C 354.886719 437.007813 356.042969 436.164063 356.433594 434.855469 C 356.828125 433.546875 355.898438 430.875 355.375 429.300781 C 354.3125 426.097656 355.058594 424.621094 356.074219 423.429688 C 357.480469 421.785156 360.699219 422.503906 360.699219 422.503906 C 360.699219 422.503906 366.992188 424.121094 367.9375 423.746094 C 370.136719 422.871094 367.902344 421.65625 367.902344 421.65625 C 367.902344 421.65625 363.476563 420.992188 362.871094 420.609375 C 361.230469 419.574219 362.480469 418.941406 362.480469 418.941406 C 362.480469 418.941406 363.460938 418.832031 365.257813 419.203125 C 368.722656 419.921875 369.601563 420.089844 370.121094 419.039063 C 370.644531 417.984375 369.375 417.472656 363.785156 415.96875 C 357.457031 414.269531 351.46875 413.761719 351.46875 413.761719 "
       id="path61"
       inkscape:export-xdpi="72"
       inkscape:export-ydpi="72" />
    <path
       style=" stroke:none;fill-rule:nonzero;fill:rgb(11.372375%,11.372375%,10.588074%);fill-opacity:1;"
       d="M 480.703125 457.890625 C 480.703125 457.890625 481.742188 458.148438 483.285156 458.03125 C 485.472656 457.867188 485.511719 456.066406 484.984375 455.15625 C 483.839844 453.195313 483.347656 451.660156 483.023438 449.273438 C 482.683594 446.816406 484.460938 443.65625 487.726563 440.910156 C 490.996094 438.164063 486.417969 436.597656 486.417969 436.597656 C 486.417969 436.597656 483.878906 435.195313 479.277344 434.808594 C 477.285156 434.640625 476.128906 435.488281 475.734375 436.792969 C 475.34375 438.101563 476.269531 440.773438 476.792969 442.347656 C 477.859375 445.550781 477.113281 447.027344 476.09375 448.21875 C 474.691406 449.863281 471.46875 449.144531 471.46875 449.144531 C 471.46875 449.144531 465.175781 447.527344 464.234375 447.902344 C 462.035156 448.777344 464.265625 449.992188 464.265625 449.992188 C 464.265625 449.992188 468.695313 450.65625 469.296875 451.039063 C 470.941406 452.074219 469.691406 452.707031 469.691406 452.707031 C 469.691406 452.707031 468.710938 452.816406 466.914063 452.445313 C 463.449219 451.726563 462.570313 451.558594 462.046875 452.609375 C 461.527344 453.664063 462.792969 454.179688 468.382813 455.679688 C 474.710938 457.378906 480.703125 457.890625 480.703125 457.890625 "
       id="path63"
       inkscape:export-xdpi="72"
       inkscape:export-ydpi="72" />
    <path
       style=" stroke:none;fill-rule:nonzero;fill:rgb(100%,100%,100%);fill-opacity:1;"
       d="M 369.597656 442.339844 L 367.8125 442.558594 L 367.8125 444.375 L 369.585938 444.160156 C 370.140625 444.089844 370.394531 443.671875 370.394531 443.136719 C 370.394531 442.589844 370.128906 442.273438 369.597656 442.339844 M 369.503906 438.902344 L 367.8125 439.109375 L 367.8125 440.578125 L 369.503906 440.371094 C 370.023438 440.308594 370.210938 439.992188 370.210938 439.550781 C 370.210938 439.136719 370.035156 438.835938 369.503906 438.902344 M 369.550781 446.207031 L 365.660156 446.6875 L 365.660156 437.328125 L 369.574219 436.847656 C 371.585938 436.597656 372.410156 437.367188 372.410156 438.933594 C 372.410156 439.949219 371.980469 440.457031 371.4375 440.882813 C 372.164063 441.15625 372.59375 441.757813 372.59375 442.8125 C 372.59375 444.722656 371.585938 445.957031 369.550781 446.207031 "
       id="path65"
       inkscape:export-xdpi="72"
       inkscape:export-ydpi="72" />
    <path
       style=" stroke:none;fill-rule:nonzero;fill:rgb(100%,100%,100%);fill-opacity:1;"
       d="M 377.660156 437.96875 C 376.757813 438.078125 376.246094 439.007813 376.246094 440.691406 C 376.246094 442.378906 376.777344 443.210938 377.683594 443.097656 C 378.585938 442.988281 379.09375 442.054688 379.09375 440.371094 C 379.09375 438.6875 378.5625 437.855469 377.660156 437.96875 M 377.660156 445.359375 C 375.460938 445.628906 373.917969 444.121094 373.917969 441.007813 C 373.917969 437.890625 375.480469 435.976563 377.683594 435.707031 C 379.882813 435.433594 381.421875 436.941406 381.421875 440.058594 C 381.421875 443.171875 379.859375 445.089844 377.660156 445.359375 "
       id="path67"
       inkscape:export-xdpi="72"
       inkscape:export-ydpi="72" />
    <path
       style=" stroke:none;fill-rule:nonzero;fill:rgb(100%,100%,100%);fill-opacity:1;"
       d="M 386.589844 436.871094 L 385.234375 437.035156 L 385.234375 439.082031 L 386.554688 438.917969 C 387.285156 438.832031 387.574219 438.421875 387.574219 437.75 C 387.574219 437.164063 387.296875 436.785156 386.589844 436.871094 M 387.457031 444.007813 L 386.136719 441.015625 L 385.234375 441.128906 L 385.234375 444.28125 L 383.023438 444.554688 L 383.023438 435.195313 L 386.648438 434.75 C 388.546875 434.515625 389.808594 435.191406 389.808594 437.410156 C 389.808594 438.816406 389.242188 439.753906 388.351563 440.332031 L 389.96875 443.703125 Z M 387.457031 444.007813 "
       id="path69"
       inkscape:export-xdpi="72"
       inkscape:export-ydpi="72" />
    <path
       style=" stroke:none;fill-rule:nonzero;fill:rgb(100%,100%,100%);fill-opacity:1;"
       d="M 396.886719 442.851563 L 394.953125 440 C 394.597656 439.472656 393.902344 438.351563 393.691406 437.960938 C 393.75 438.371094 393.761719 439.613281 393.761719 440.375 L 393.761719 443.234375 L 391.609375 443.5 L 391.609375 434.140625 L 393.589844 433.898438 L 395.371094 436.449219 C 395.742188 436.976563 396.457031 438.132813 396.632813 438.496094 C 396.574219 438.089844 396.5625 436.847656 396.5625 436.085938 L 396.5625 433.53125 L 398.71875 433.269531 L 398.71875 442.625 Z M 396.886719 442.851563 "
       id="path71"
       inkscape:export-xdpi="72"
       inkscape:export-ydpi="72" />
    <path
       style=" stroke:none;fill-rule:nonzero;fill:rgb(100%,100%,100%);fill-opacity:1;"
       d="M 408.949219 434.273438 L 408.949219 441.371094 L 406.703125 441.648438 L 406.703125 434.546875 L 404.433594 434.824219 L 404.433594 432.566406 L 411.21875 431.734375 L 411.21875 433.992188 Z M 408.949219 434.273438 "
       id="path73"
       inkscape:export-xdpi="72"
       inkscape:export-ydpi="72" />
    <path
       style=" stroke:none;fill-rule:nonzero;fill:rgb(100%,100%,100%);fill-opacity:1;"
       d="M 416.222656 433.230469 C 415.320313 433.34375 414.8125 434.273438 414.8125 435.957031 C 414.8125 437.644531 415.34375 438.472656 416.246094 438.363281 C 417.148438 438.253906 417.65625 437.320313 417.65625 435.636719 C 417.65625 433.949219 417.125 433.121094 416.222656 433.230469 M 416.222656 440.625 C 414.023438 440.894531 412.484375 439.386719 412.484375 436.269531 C 412.484375 433.15625 414.046875 431.238281 416.246094 430.96875 C 418.445313 430.699219 419.984375 432.207031 419.984375 435.324219 C 419.984375 438.4375 418.421875 440.355469 416.222656 440.625 "
       id="path75"
       inkscape:export-xdpi="72"
       inkscape:export-ydpi="72" />
    <path
       style=" stroke:none;fill-rule:nonzero;fill:rgb(100%,100%,100%);fill-opacity:1;"
       d="M 429.878906 431.703125 L 429.878906 438.800781 L 427.632813 439.078125 L 427.632813 431.976563 L 425.363281 432.253906 L 425.363281 429.996094 L 432.148438 429.164063 L 432.148438 431.421875 Z M 429.878906 431.703125 "
       id="path77"
       inkscape:export-xdpi="72"
       inkscape:export-ydpi="72" />
    <path
       style=" stroke:none;fill-rule:nonzero;fill:rgb(100%,100%,100%);fill-opacity:1;"
       d="M 433.75 438.324219 L 433.75 428.964844 L 439.957031 428.207031 L 439.957031 430.382813 L 435.976563 430.875 L 435.976563 432.117188 L 438.371094 431.824219 L 438.371094 433.976563 L 435.976563 434.269531 L 435.976563 435.875 L 440.039063 435.375 L 440.039063 437.554688 Z M 433.75 438.324219 "
       id="path79"
       inkscape:export-xdpi="72"
       inkscape:export-ydpi="72" />
    <path
       style=" stroke:none;fill-rule:nonzero;fill:rgb(100%,100%,100%);fill-opacity:1;"
       d="M 445.867188 432.519531 C 445.578125 431.351563 445.449219 430.859375 445.34375 430.246094 C 445.242188 430.886719 445.113281 431.421875 444.824219 432.648438 L 444.675781 433.28125 L 446.015625 433.117188 Z M 447 436.699219 L 446.5625 435.109375 L 444.128906 435.40625 L 443.691406 437.105469 L 441.28125 437.402344 L 444.222656 427.679688 L 446.492188 427.402344 L 449.433594 436.398438 Z M 447 436.699219 "
       id="path81"
       inkscape:export-xdpi="72"
       inkscape:export-ydpi="72" />
    <path
       style=" stroke:none;fill-rule:nonzero;fill:rgb(100%,100%,100%);fill-opacity:1;"
       d="M 454.242188 435.957031 C 451.835938 436.253906 450.550781 434.351563 450.550781 431.582031 C 450.550781 428.574219 452.078125 426.570313 454.253906 426.304688 C 456.246094 426.058594 457.035156 426.949219 457.589844 428.648438 L 455.550781 429.820313 C 455.261719 428.988281 454.984375 428.472656 454.242188 428.5625 C 453.304688 428.679688 452.898438 429.8125 452.898438 431.296875 C 452.898438 432.726563 453.292969 433.8125 454.265625 433.695313 C 454.972656 433.609375 455.273438 433.128906 455.714844 432.195313 L 457.613281 433.125 C 457.066406 434.417969 456.164063 435.722656 454.242188 435.957031 "
       id="path83"
       inkscape:export-xdpi="72"
       inkscape:export-ydpi="72" />
    <path
       style=" stroke:none;fill-rule:nonzero;fill:rgb(100%,100%,100%);fill-opacity:1;"
       d="M 463.9375 434.617188 L 463.9375 430.929688 L 461.414063 431.238281 L 461.414063 434.929688 L 459.121094 435.210938 L 459.121094 425.851563 L 461.414063 425.570313 L 461.414063 428.980469 L 463.9375 428.671875 L 463.9375 425.261719 L 466.230469 424.980469 L 466.230469 434.335938 Z M 463.9375 434.617188 "
       id="path85"
       inkscape:export-xdpi="72"
       inkscape:export-ydpi="72" />
  </g>
</svg>
